<svg xmlns="http://www.w3.org/2000/svg" xmlns:xlink="http://www.w3.org/1999/xlink" version="1.1" style="enable-background:new 0 0 1080 1080;" xml:space="preserve" width="663.3333344459534" height="586.666669845581"><rect id="backgroundrect" width="100%" height="100%" x="0" y="0" fill="none" stroke="none"/>
<style type="text/css">
	.st0{fill:url(#SVGID_1_);}
	.st1{fill:url(#SVGID_00000035531483483077489150000006509631413745609904_);}
	.st2{fill:url(#SVGID_00000179628533903296380670000016983017288970206140_);}
	.st3{fill:url(#SVGID_00000114054711719031437170000014377982255820604042_);}
	.st4{fill:#886224;}
	.st5{fill:#E9CC7F;}
	.st6{fill:#FDEAC5;}
	.st7{fill:url(#SVGID_00000156586265370123294360000006155090562378995123_);}
	.st8{fill:url(#SVGID_00000176744469181025371740000015246721395609238945_);}
	.st9{fill:url(#SVGID_00000153695575909921765820000016213701328848090808_);}
	.st10{fill:none;stroke:#76561F;stroke-width:16.0112;stroke-miterlimit:10;}
	
		.st11{fill:none;stroke:url(#SVGID_00000133490711476267368480000008243031810862665616_);stroke-width:18.2985;stroke-miterlimit:10;}
	.st12{fill:url(#SVGID_00000011007342230040056930000005239849359183040947_);}
	.st13{fill:none;stroke:#926A28;stroke-width:13.7238;stroke-miterlimit:10;}
	.st14{fill:#936A28;}
</style>

<g class="currentLayer" style=""><title>Layer 1</title><g id="svg_1" class="">
	<linearGradient id="SVGID_1_" gradientUnits="userSpaceOnUse" x1="645.86572265625" y1="369.30780029296875" x2="694.5847778320312" y2="299.1365966796875" transform="translate(-97.33332824707031,-173.3333282470703) translate(-110,-72.66666412353516) ">
		<stop offset="0.4967" style="stop-color:#F4D472"/>
		<stop offset="0.6021" style="stop-color:#F7E09D"/>
		<stop offset="0.7146" style="stop-color:#F9EBC3"/>
		<stop offset="0.8047" style="stop-color:#FAF2DB"/>
		<stop offset="0.8603" style="stop-color:#FBF4E4"/>
	</linearGradient>
	<polygon class="st0" points="548.5796966552734,155.06602478027344 548.5796966552734,95.71601867675781 389.2706756591797,4.0000152587890625 389.2706756591797,89.10600280761719 " id="svg_2"/>
	
		<linearGradient id="SVGID_00000105422002925488291590000015175937305072205991_" gradientUnits="userSpaceOnUse" x1="921.5081787109375" y1="372.8117980957031" x2="970.2274169921875" y2="302.6405029296875" gradientTransform="matrix(-1 0 0 1 1343.7887 0)" transform="translate(-97.33332824707031,-173.3333282470703) translate(-110,-72.66666412353516) ">
		<stop offset="0.4967" style="stop-color:#F4D472"/>
		<stop offset="0.6021" style="stop-color:#F7E09D"/>
		<stop offset="0.7146" style="stop-color:#F9EBC3"/>
		<stop offset="0.8047" style="stop-color:#FAF2DB"/>
		<stop offset="0.8603" style="stop-color:#FBF4E4"/>
	</linearGradient>
	<polygon style="fill:url(#SVGID_00000105422002925488291590000015175937305072205991_);" points="104.90068054199219,158.5700225830078 104.90068054199219,99.22001647949219 264.2086639404297,7.5040130615234375 264.2086639404297,92.61000061035156 " id="svg_3"/>
	
		<linearGradient id="SVGID_00000109000495446211452760000012176417561698935442_" gradientUnits="userSpaceOnUse" x1="408.41009521484375" y1="365.53228759765625" x2="382.4320983886719" y2="320.5369873046875" transform="translate(-97.33332824707031,-173.3333282470703) translate(-110,-72.66666412353516) ">
		<stop offset="1.132216e-07" style="stop-color:#E3D362"/>
		<stop offset="0.1562" style="stop-color:#DECD5F"/>
		<stop offset="0.3744" style="stop-color:#D1BA55"/>
		<stop offset="0.6278" style="stop-color:#BC9D46"/>
		<stop offset="0.81" style="stop-color:#A98339"/>
	</linearGradient>
	<polygon style="fill:url(#SVGID_00000109000495446211452760000012176417561698935442_);" points="123.01567077636719,140.58201599121094 123.01567077636719,104.60700988769531 243.11268615722656,36.084991455078125 243.11268615722656,95.26301574707031 " id="svg_4"/>
	
		<linearGradient id="SVGID_00000116203461850255061640000015536542604761387420_" gradientUnits="userSpaceOnUse" x1="661.0656127929688" y1="365.53228759765625" x2="687.0435791015625" y2="320.5369873046875" transform="translate(-97.33332824707031,-173.3333282470703) translate(-110,-72.66666412353516) ">
		<stop offset="1.132216e-07" style="stop-color:#E3D362"/>
		<stop offset="0.1794" style="stop-color:#DECD5F"/>
		<stop offset="0.4301" style="stop-color:#D1BA55"/>
		<stop offset="0.7213" style="stop-color:#BC9D46"/>
		<stop offset="0.9306" style="stop-color:#A98339"/>
	</linearGradient>
	<polygon style="fill:url(#SVGID_00000116203461850255061640000015536542604761387420_);" points="531.7926483154297,140.58201599121094 531.7926483154297,104.60700988769531 411.6967010498047,36.084991455078125 411.6967010498047,95.26301574707031 " id="svg_5"/>
	<polygon class="st4" points="89.54768371582031,416.6060028076172 5.444671630859375,350.0909881591797 104.04866027832031,352.90098571777344 104.04866027832031,428.7849578857422 " id="svg_6"/>
	<polygon class="st5" points="5.444671630859375,350.0909881591797 5.444671630859375,231.11302185058594 96.63667297363281,231.11302185058594 96.63667297363281,352.6899871826172 " id="svg_7"/>
	<polygon class="st6" points="96.63667297363281,158.97801208496094 5.444671630859375,231.11302185058594 104.04866027832031,231.11302185058594 104.04866027832031,149.60902404785156 " id="svg_8"/>
	<polygon class="st4" points="575.7856903076172,416.39097595214844 659.8886566162109,349.87596130371094 561.2846527099609,352.68699645996094 561.2846527099609,428.5699920654297 " id="svg_9"/>
	<polygon class="st5" points="659.8886566162109,349.87596130371094 659.8886566162109,230.8990020751953 568.6967010498047,230.8990020751953 568.6967010498047,352.47496032714844 " id="svg_10"/>
	<polygon class="st6" points="568.6967010498047,158.5430145263672 659.8886566162109,230.6790008544922 561.2846527099609,230.6790008544922 561.2846527099609,149.1750030517578 " id="svg_11"/>
	
		<linearGradient id="SVGID_00000168087150924120860330000014954792370165696938_" gradientUnits="userSpaceOnUse" x1="1012.0698852539062" y1="801.9005737304688" x2="1119.9884033203125" y2="646.46337890625" gradientTransform="matrix(-1 0 0 1 1720.8937 0)" transform="translate(-97.33332824707031,-173.3333282470703) translate(-110,-72.66666412353516) ">
		<stop offset="0.1058" style="stop-color:#C3B376"/>
		<stop offset="0.1917" style="stop-color:#B59F61"/>
		<stop offset="0.3361" style="stop-color:#A18345"/>
		<stop offset="0.4617" style="stop-color:#947233"/>
		<stop offset="0.5535" style="stop-color:#906C2D"/>
	</linearGradient>
	<polygon style="fill:url(#SVGID_00000168087150924120860330000014954792370165696938_);" points="517.8026580810547,430.6890106201172 563.4566497802734,498.7999725341797 479.7506561279297,516.8220062255859 417.7546844482422,583.9999847412109 374.39268493652344,505.4399871826172 " id="svg_12"/>
	
		<linearGradient id="SVGID_00000005262508045029105490000012751038533653503105_" gradientUnits="userSpaceOnUse" x1="795.5012817382812" y1="799.9962768554688" x2="903.419921875" y2="644.55908203125" gradientTransform="matrix(1 0 0 1 -425.0151 0)" transform="translate(-97.33332824707031,-173.3333282470703) translate(-110,-72.66666412353516) ">
		<stop offset="0.1058" style="stop-color:#C3B376"/>
		<stop offset="0.1917" style="stop-color:#B59F61"/>
		<stop offset="0.3361" style="stop-color:#A18345"/>
		<stop offset="0.4617" style="stop-color:#947233"/>
		<stop offset="0.5535" style="stop-color:#906C2D"/>
	</linearGradient>
	<polygon style="fill:url(#SVGID_00000005262508045029105490000012751038533653503105_);" points="146.84068298339844,428.7849578857422 101.18666076660156,496.89500427246094 184.89268493652344,514.9180145263672 246.88865661621094,582.0959930419922 290.2506866455078,503.53599548339844 " id="svg_13"/>
	
		<linearGradient id="SVGID_00000048473224414851370630000003625223918192326314_" gradientUnits="userSpaceOnUse" x1="348.81781005859375" y1="392.8551940917969" x2="750.0117797851562" y2="706.2517700195312" transform="translate(-97.33332824707031,-173.3333282470703) translate(-110,-72.66666412353516) ">
		<stop offset="0.0295" style="stop-color:#FBE8B5"/>
		<stop offset="0.2338" style="stop-color:#F8E3A0"/>
		<stop offset="0.7" style="stop-color:#F1D776"/>
		<stop offset="0.9388" style="stop-color:#EFD366"/>
	</linearGradient>
	<polygon style="fill:url(#SVGID_00000048473224414851370630000003625223918192326314_);" points="331.22166442871094,12.028030395507812 90.22767639160156,154.5170135498047 90.22767639160156,436.3979949951172 331.22166442871094,578.1129608154297 572.2166595458984,437.17198181152344 572.2166595458984,153.74302673339844 " id="svg_14"/>
	<polygon class="st10" points="331.22166442871094,20.507003784179688 94.70466613769531,159.6420135498047 94.70466613769531,434.8879852294922 331.22166442871094,573.2670135498047 567.7396697998047,435.6439666748047 567.7396697998047,158.88600158691406 " id="svg_15"/>
	
		<linearGradient id="SVGID_00000164473495169253149870000001093166806801115008_" gradientUnits="userSpaceOnUse" x1="498.5989990234375" y1="316.2835998535156" x2="578.50830078125" y2="769.4716796875" transform="translate(-97.33332824707031,-173.3333282470703) translate(-110,-72.66666412353516) ">
		<stop offset="8.709354e-09" style="stop-color:#AB883B"/>
		<stop offset="0.1442" style="stop-color:#AE8C40"/>
		<stop offset="0.3211" style="stop-color:#B7974F"/>
		<stop offset="0.5149" style="stop-color:#C6A968"/>
		<stop offset="0.7209" style="stop-color:#DBC38B"/>
		<stop offset="0.9345" style="stop-color:#F6E3B7"/>
		<stop offset="1" style="stop-color:#FFEEC6"/>
	</linearGradient>
	
		<polygon style="fill:none;stroke:url(#SVGID_00000164473495169253149870000001093166806801115008_);stroke-width:18.2985;stroke-miterlimit:10;" points="331.22166442871094,73.80101013183594 136.94667053222656,186.1070098876953 136.94667053222656,408.27696228027344 331.22166442871094,519.9719696044922 525.4966888427734,408.8870086669922 525.4966888427734,185.4970245361328 " id="svg_16"/>
	
		<linearGradient id="SVGID_00000155134535726861063530000012683407653799832732_" gradientUnits="userSpaceOnUse" x1="353.35699462890625" y1="445.6398010253906" x2="672.8914794921875" y2="613.4262084960938" transform="translate(-97.33332824707031,-173.3333282470703) translate(-110,-72.66666412353516) ">
		<stop offset="1.132216e-07" style="stop-color:#E3D362"/>
		<stop offset="0.1997" style="stop-color:#DFCE5F"/>
		<stop offset="0.4446" style="stop-color:#D4BF58"/>
		<stop offset="0.7129" style="stop-color:#C2A64B"/>
		<stop offset="0.9964" style="stop-color:#A98339"/>
		<stop offset="1" style="stop-color:#A98339"/>
	</linearGradient>
	<polygon style="fill:url(#SVGID_00000155134535726861063530000012683407653799832732_);" points="153.6876678466797,196.64402770996094 150.76768493652344,401.02098083496094 331.22166442871094,505.4399871826172 511.67564392089844,401.5909881591797 511.67564392089844,192.7530059814453 331.22166442871094,88.33302307128906 " id="svg_17"/>
	<polygon class="st13" points="331.22166442871094,88.33302307128906 150.76768493652344,193.32301330566406 150.76768493652344,401.02098083496094 331.22166442871094,505.4399871826172 511.67564392089844,401.5909881591797 511.67564392089844,192.7530059814453 " id="svg_18"/>
	<g id="svg_19">
		<circle class="st14" cx="331.22166442871094" cy="296.8870315551758" r="49.3489990234375" id="svg_20"/>
		<path class="st14" d="M358.7276717529297,135.62400762939455 l-15.709,117.244 c-0.137,1.023 -1.097,1.727 -2.114,1.5510000000000002 l-8.922,-1.545 c-1.017,-0.17600000000000005 -1.6840000000000004,-1.162 -1.469,-2.171 l24.631,-115.699 C355.6316717529297,132.72000762939456 359.03767175292967,133.31000762939453 358.7276717529297,135.62400762939455 z" id="svg_21"/>
		<path class="st14" d="M307.54867175292964,135.01700762939453 l21.29,116.36 c0.18600000000000005,1.015 -0.509,1.9809999999999999 -1.5310000000000001,2.128 l-8.963000000000001,1.288 c-1.022,0.14700000000000005 -1.96,-0.5850000000000002 -2.068,-1.6110000000000002 l-12.327,-117.647 C303.7066717529297,133.21200762939452 307.1286717529297,132.72100762939453 307.54867175292964,135.01700762939453 z" id="svg_22"/>
		<path class="st14" d="M258.68667175292967,150.25500762939453 l56.206,104.085 c0.4900000000000001,0.908 0.128,2.042 -0.798,2.497 l-8.127,3.9939999999999998 c-0.926,0.455 -2.045,0.05000000000000002 -2.465,-0.8930000000000002 l-48.079,-108.08 C254.47467175292968,149.72600762939453 257.5776717529297,148.20100762939455 258.68667175292967,150.25500762939453 z" id="svg_23"/>
		<path class="st14" d="M216.92467175292967,179.84600762939453 l85.619,81.623 c0.7470000000000002,0.7120000000000002 0.7530000000000002,1.9020000000000001 0.012000000000000004,2.622 l-6.495,6.3100000000000005 c-0.7400000000000002,0.7190000000000002 -1.9300000000000002,0.6790000000000004 -2.62,-0.08800000000000004 l-79.124,-87.933 C212.7556717529297,180.64400762939454 215.2356717529297,178.23500762939454 216.92467175292967,179.84600762939453 z" id="svg_24"/>
		<path class="st14" d="M186.3516717529297,220.89400762939454 l106.651,51.17 c0.93,0.4460000000000001 1.304,1.577 0.8220000000000002,2.489 l-4.227,8.008 c-0.4820000000000001,0.913 -1.625,1.242 -2.519,0.7260000000000002 L184.6546717529297,224.11000762939454 C182.63367175292967,222.94200762939454 184.24667175292967,219.88400762939455 186.3516717529297,220.89400762939454 z" id="svg_25"/>
		<path class="st14" d="M169.95867175292966,269.3810076293945 l117.244,15.709 c1.023,0.137 1.727,1.097 1.5510000000000002,2.114 l-1.545,8.922 c-0.17600000000000005,1.017 -1.162,1.6840000000000004 -2.171,1.469 l-115.699,-24.631 C167.0556717529297,272.4770076293945 167.64567175292967,269.07100762939456 169.95867175292966,269.3810076293945 z" id="svg_26"/>
		<path class="st14" d="M169.3516717529297,320.5600076293945 l116.36,-21.29 c1.015,-0.18600000000000005 1.9809999999999999,0.509 2.128,1.5310000000000001 l1.288,8.963000000000001 c0.14700000000000005,1.022 -0.5850000000000002,1.961 -1.6110000000000002,2.068 l-117.647,12.327 C167.54767175292966,324.4020076293946 167.0556717529297,320.98000762939455 169.3516717529297,320.5600076293945 z" id="svg_27"/>
		<path class="st14" d="M184.5896717529297,369.42200762939456 l104.085,-56.206 c0.908,-0.4900000000000001 2.042,-0.128 2.497,0.798 l3.9939999999999998,8.127 c0.455,0.926 0.05000000000000002,2.045 -0.8930000000000002,2.465 l-108.08,48.079 C184.0606717529297,373.63400762939455 182.53567175292972,370.5310076293945 184.5896717529297,369.42200762939456 z" id="svg_28"/>
		<path class="st14" d="M214.18167175292967,411.1840076293945 l81.623,-85.619 c0.7120000000000002,-0.7470000000000002 1.9020000000000001,-0.7530000000000002 2.621,-0.012000000000000004 l6.3100000000000005,6.495 c0.7190000000000002,0.7400000000000002 0.6790000000000004,1.9300000000000002 -0.08800000000000004,2.62 l-87.933,79.124 C214.97967175292968,415.3530076293945 212.57067175292968,412.8730076293946 214.18167175292967,411.1840076293945 z" id="svg_29"/>
		<path class="st14" d="M255.22967175292968,441.7570076293945 l51.17,-106.651 c0.4460000000000001,-0.93 1.577,-1.304 2.489,-0.8220000000000002 l8.008,4.227 c0.913,0.4820000000000001 1.242,1.625 0.7260000000000002,2.519 l-59.178,102.424 C257.2766717529297,445.47500762939455 254.21967175292968,443.8620076293945 255.22967175292968,441.7570076293945 z" id="svg_30"/>
		<path class="st14" d="M303.71567175292967,458.14900762939453 l15.709,-117.244 c0.137,-1.023 1.097,-1.727 2.114,-1.5510000000000002 l8.922,1.545 c1.017,0.17600000000000005 1.6840000000000004,1.162 1.469,2.171 L307.29867175292964,458.7700076293945 C306.81267175292965,461.05300762939453 303.40567175292966,460.4630076293945 303.71567175292967,458.14900762939453 z" id="svg_31"/>
		<path class="st14" d="M354.89567175292973,458.7560076293945 l-21.29,-116.36 c-0.18600000000000005,-1.015 0.509,-1.9809999999999999 1.5310000000000001,-2.128 l8.963000000000001,-1.288 c1.022,-0.14700000000000005 1.96,0.5850000000000002 2.068,1.6110000000000002 l12.327,117.647 C358.7376717529297,460.56100762939457 355.3156717529297,461.05300762939453 354.89567175292973,458.7560076293945 z" id="svg_32"/>
		<path class="st14" d="M403.7566717529297,443.51900762939454 l-56.206,-104.085 c-0.4900000000000001,-0.908 -0.128,-2.042 0.798,-2.497 l8.127,-3.9939999999999998 c0.926,-0.455 2.045,-0.05000000000000002 2.465,0.8930000000000002 l48.079,108.08 C407.9686717529297,444.04800762939453 404.86667175292973,445.5730076293945 403.7566717529297,443.51900762939454 z" id="svg_33"/>
		<path class="st14" d="M445.51867175292966,413.92700762939455 l-85.619,-81.623 c-0.7470000000000002,-0.7120000000000002 -0.7530000000000002,-1.9020000000000001 -0.012000000000000004,-2.622 l6.495,-6.3100000000000005 c0.7400000000000002,-0.7190000000000002 1.9300000000000002,-0.6790000000000004 2.62,0.08800000000000004 l79.124,87.933 C449.68767175292965,413.12900762939455 447.2086717529297,415.53800762939454 445.51867175292966,413.92700762939455 z" id="svg_34"/>
		<path class="st14" d="M476.09167175292964,372.87900762939455 l-106.651,-51.17 c-0.93,-0.4460000000000001 -1.304,-1.577 -0.8220000000000002,-2.489 l4.227,-8.008 c0.4820000000000001,-0.913 1.625,-1.242 2.519,-0.7260000000000002 l102.424,59.178 C479.8106717529297,370.8320076293945 478.19667175292966,373.88900762939454 476.09167175292964,372.87900762939455 z" id="svg_35"/>
		<path class="st14" d="M492.48467175292967,324.39300762939456 l-117.244,-15.709 c-1.023,-0.137 -1.727,-1.097 -1.5510000000000002,-2.114 l1.545,-8.922 c0.17600000000000005,-1.017 1.162,-1.6840000000000004 2.171,-1.469 l115.698,24.631 C495.38867175292967,321.2960076293946 494.79867175292964,324.7030076293945 492.48467175292967,324.39300762939456 z" id="svg_36"/>
		<path class="st14" d="M493.09167175292964,273.2130076293945 l-116.36,21.291 c-1.015,0.18600000000000005 -1.9809999999999999,-0.509 -2.128,-1.5310000000000001 l-1.288,-8.963000000000001 c-0.14700000000000005,-1.022 0.5850000000000002,-1.96 1.6110000000000002,-2.068 l117.647,-12.327 C494.8966717529297,269.3710076293945 495.3876717529297,272.79300762939454 493.09167175292964,273.2130076293945 z" id="svg_37"/>
		<path class="st14" d="M477.8536717529297,224.3520076293945 l-104.085,56.206 c-0.908,0.4900000000000001 -2.042,0.128 -2.497,-0.798 l-3.9939999999999998,-8.127 c-0.455,-0.926 -0.05000000000000002,-2.045 0.8930000000000002,-2.465 l108.08,-48.079 C478.3826717529297,220.14000762939452 479.9076717529297,223.24200762939455 477.8536717529297,224.3520076293945 z" id="svg_38"/>
		<path class="st14" d="M448.2626717529297,182.5900076293945 l-81.623,85.619 c-0.7120000000000002,0.7470000000000002 -1.9020000000000001,0.7530000000000002 -2.622,0.012000000000000004 l-6.3100000000000005,-6.494 c-0.7190000000000002,-0.7400000000000002 -0.6790000000000004,-1.9300000000000002 0.08800000000000004,-2.62 l87.933,-79.124 C447.4646717529297,178.42100762939452 449.8736717529297,180.9000076293945 448.2626717529297,182.5900076293945 z" id="svg_39"/>
		<path class="st14" d="M407.2146717529297,152.01700762939453 l-51.17,106.651 c-0.4460000000000001,0.93 -1.577,1.304 -2.489,0.8220000000000002 l-8.008,-4.227 c-0.913,-0.4820000000000001 -1.242,-1.625 -0.7260000000000002,-2.519 l59.178,-102.424 C405.1666717529297,148.29800762939453 408.2246717529297,149.9120076293945 407.2146717529297,152.01700762939453 z" id="svg_40"/>
	</g>
</g></g></svg>