<svg xmlns="http://www.w3.org/2000/svg" xmlns:xlink="http://www.w3.org/1999/xlink" version="1.1" style="" xml:space="preserve" width="614.0000001192093" height="590.3333340883255"><rect id="backgroundrect" width="100%" height="100%" x="0" y="0" fill="none" stroke="none"/>
<style type="text/css">
	.st0{fill:#84413A;}
	.st1{fill:#C16962;}
	.st2{fill:#ECD4D1;}
	.st3{fill:url(#SVGID_1_);}
	.st4{fill:url(#SVGID_00000102510446999762863130000006217037587858000820_);}
	.st5{fill:url(#SVGID_00000069393714252605848350000001694601666891950519_);}
	.st6{fill:none;stroke:#9D5146;stroke-width:16.3104;stroke-miterlimit:10;}
	
		.st7{fill:none;stroke:url(#SVGID_00000009587227074517375190000014096692131866098586_);stroke-width:18.6404;stroke-miterlimit:10;}
	.st8{fill:url(#SVGID_00000108269291730282328440000004636708773241923255_);}
	.st9{fill:none;stroke:#6A352B;stroke-width:13.9803;stroke-miterlimit:10;}
	.st10{fill:#67342A;}
</style>

<g class="currentLayer" style=""><title>Layer 1</title><g id="svg_1" class="">
	<polygon class="st0" points="556.346658706665,372.418660402298 608.1036777496338,330.1806538105011 547.4227085113525,331.96465039253235 547.4227085113525,380.1526997089386 " id="svg_2"/>
	<polygon class="st1" points="608.1036777496338,330.1806538105011 608.1036777496338,254.6266987323761 551.9837436676025,254.6266987323761 551.9837436676025,331.8306782245636 " id="svg_3"/>
	<polygon class="st2" points="551.9837436676025,208.8196918964386 608.1036777496338,254.6266987323761 547.4227085113525,254.6266987323761 547.4227085113525,202.8696949481964 " id="svg_4"/>
	<polygon class="st0" points="60.986684799194336,373.27568554878235 9.229679107666016,331.03764843940735 69.91066551208496,332.82268261909485 69.91066551208496,381.0096638202667 " id="svg_5"/>
	<polygon class="st1" points="9.229679107666016,331.03764843940735 9.229679107666016,255.48466992378235 65.34969139099121,255.48466992378235 65.34969139099121,332.68864941596985 " id="svg_6"/>
	<polygon class="st2" points="65.34969139099121,209.6766712665558 9.229679107666016,255.48466992378235 69.91066551208496,255.48466992378235 69.91066551208496,203.72771191596985 " id="svg_7"/>
	<linearGradient id="SVGID_1_" gradientUnits="userSpaceOnUse" x1="379.51568603515625" y1="810.0407104492188" x2="459.1339111328125" y2="695.3651123046875" transform="translate(10.666666030883789,3.3333332538604736) translate(-19.33333396911621,-66.66666412353516) translate(-222.66665649414062,-181.3333282470703) translate(0,-0.6666666269302368) ">
		<stop offset="0.1058" style="stop-color:#D9AFB7"/>
		<stop offset="0.2174" style="stop-color:#CC9A9F"/>
		<stop offset="0.4509" style="stop-color:#AB6463"/>
		<stop offset="0.5535" style="stop-color:#9C4B47"/>
	</linearGradient>
	<polygon class="st3" points="137.63066291809082,472.47868847846985 103.91966438293457,523.5896198749542 170.54866981506348,530.7286579608917 208.91066932678223,584.6666462421417 243.52468299865723,528.5726521015167 " id="svg_8"/>
	
		<linearGradient id="SVGID_00000121247054858154031980000015595246411152540841_" gradientUnits="userSpaceOnUse" x1="1017.2365112304688" y1="810.0407104492188" x2="1096.854736328125" y2="695.3651123046875" gradientTransform="matrix(-1 0 0 1 1720.8937 0)" transform="translate(10.666666030883789,3.3333332538604736) translate(-19.33333396911621,-66.66666412353516) translate(-222.66665649414062,-181.3333282470703) translate(0,-0.6666666269302368) ">
		<stop offset="0.1058" style="stop-color:#D9AFB7"/>
		<stop offset="0.2174" style="stop-color:#CC9A9F"/>
		<stop offset="0.4509" style="stop-color:#AB6463"/>
		<stop offset="0.5535" style="stop-color:#9C4B47"/>
	</linearGradient>
	<polygon style="fill:url(#SVGID_00000121247054858154031980000015595246411152540841_);" points="482.8756504058838,472.47868847846985 516.5866184234619,523.5896198749542 449.9576816558838,530.7286579608917 411.59568214416504,584.6666462421417 376.98166847229004,528.5726521015167 " id="svg_9"/>
	
		<linearGradient id="SVGID_00000133493926347785537450000014737823701101890432_" gradientUnits="userSpaceOnUse" x1="295.4128112792969" y1="397.37530517578125" x2="789.62939453125" y2="679.6768798828125" transform="translate(10.666666030883789,3.3333332538604736) translate(-19.33333396911621,-66.66666412353516) translate(-222.66665649414062,-181.3333282470703) translate(0,-0.6666666269302368) ">
		<stop offset="0.0295" style="stop-color:#EACEC5"/>
		<stop offset="0.3998" style="stop-color:#D89E93"/>
		<stop offset="0.7568" style="stop-color:#C97668"/>
		<stop offset="0.9388" style="stop-color:#C36658"/>
	</linearGradient>
	<polygon style="fill:url(#SVGID_00000133493926347785537450000014737823701101890432_);" points="310.8476963043213,4.666669130325317 65.34969139099121,149.81868481636047 65.34969139099121,436.96770215034485 310.8476963043213,581.3306477069855 556.346658706665,437.7567036151886 556.346658706665,149.02968335151672 " id="svg_10"/>
	<polygon class="st6" points="310.8476963043213,13.303677797317505 69.91066551208496,155.0396625995636 69.91066551208496,435.428670167923 310.8476963043213,576.3936359882355 551.7857456207275,436.1996967792511 551.7857456207275,154.2686665058136 " id="svg_11"/>
	
		<linearGradient id="SVGID_00000064349303478121034820000000135683624088427171_" gradientUnits="userSpaceOnUse" x1="501.4783020019531" y1="309.3440856933594" x2="582.8809814453125" y2="771.0018920898438" transform="translate(10.666666030883789,3.3333332538604736) translate(-19.33333396911621,-66.66666412353516) translate(-222.66665649414062,-181.3333282470703) translate(0,-0.6666666269302368) ">
		<stop offset="8.709354e-09" style="stop-color:#744139"/>
		<stop offset="0.1528" style="stop-color:#79463E"/>
		<stop offset="0.3401" style="stop-color:#88544C"/>
		<stop offset="0.5455" style="stop-color:#A16B63"/>
		<stop offset="0.7638" style="stop-color:#C48B82"/>
		<stop offset="0.9901" style="stop-color:#F0B4AB"/>
		<stop offset="1" style="stop-color:#F2B6AD"/>
	</linearGradient>
	
		<polygon style="fill:none;stroke:url(#SVGID_00000064349303478121034820000000135683624088427171_);stroke-width:18.6404;stroke-miterlimit:10;" points="310.8476963043213,67.59368634223938 112.9416675567627,181.99867749214172 112.9416675567627,408.3206684589386 310.8476963043213,522.1036579608917 508.7536106109619,408.9426472187042 508.7536106109619,181.37666821479797 " id="svg_12"/>
	
		<linearGradient id="SVGID_00000134949543227740786480000018311301847508095145_" gradientUnits="userSpaceOnUse" x1="353.52191162109375" y1="441.1178894042969" x2="679.0281982421875" y2="612.0399780273438" transform="translate(10.666666030883789,3.3333332538604736) translate(-19.33333396911621,-66.66666412353516) translate(-222.66665649414062,-181.3333282470703) translate(0,-0.6666666269302368) ">
		<stop offset="0" style="stop-color:#AD5B50"/>
		<stop offset="0.2299" style="stop-color:#A8584D"/>
		<stop offset="0.5117" style="stop-color:#995046"/>
		<stop offset="0.8193" style="stop-color:#804339"/>
		<stop offset="1" style="stop-color:#6E3930"/>
	</linearGradient>
	<polygon style="fill:url(#SVGID_00000134949543227740786480000018311301847508095145_);" points="129.99568367004395,192.73271679878235 127.02168464660645,400.928670167923 310.8476963043213,507.2996723651886 494.67466163635254,401.5106403827667 494.67466163635254,188.7686665058136 310.8476963043213,82.3976719379425 " id="svg_13"/>
	<polygon class="st9" points="310.8476963043213,82.3976719379425 127.02168464660645,189.34969067573547 127.02168464660645,400.928670167923 310.8476963043213,507.2996723651886 494.67466163635254,401.5106403827667 494.67466163635254,188.7686665058136 " id="svg_14"/>
	<g id="svg_15">
		<circle class="st10" cx="310.84770584106445" cy="297.22868597507477" r="50.27199935913086" id="svg_16"/>
		<path class="st10" d="M338.867675567627,132.95267425632477 l-16.002,119.435 c-0.14,1.042 -1.117,1.7590000000000003 -2.153,1.58 l-9.089,-1.574 c-1.036,-0.1790000000000001 -1.715,-1.184 -1.496,-2.212 l25.091,-117.861 C335.713675567627,129.99467425632474 339.183675567627,130.59567425632474 338.867675567627,132.95267425632477 z" id="svg_17"/>
		<path class="st10" d="M286.732675567627,132.33467425632477 l21.688,118.534 c0.1890000000000001,1.034 -0.519,2.018 -1.5590000000000002,2.168 l-9.131,1.312 c-1.041,0.1490000000000001 -1.9969999999999999,-0.5960000000000004 -2.107,-1.641 l-12.558,-119.846 C282.818675567627,130.49567425632478 286.304675567627,129.99467425632474 286.732675567627,132.33467425632477 z" id="svg_18"/>
		<path class="st10" d="M236.95767556762695,147.85667425632477 l57.256,106.031 c0.5,0.925 0.13,2.08 -0.8130000000000004,2.544 l-8.278,4.069 c-0.9440000000000004,0.464 -2.083,0.05100000000000004 -2.511,-0.91 l-48.978,-110.1 C232.66667556762695,147.31767425632478 235.82767556762695,145.76467425632478 236.95767556762695,147.85667425632477 z" id="svg_19"/>
		<path class="st10" d="M194.41467556762694,178.00167425632475 l87.219,83.148 c0.7610000000000005,0.7250000000000004 0.7670000000000005,1.9380000000000002 0.013000000000000012,2.6710000000000003 l-6.616,6.428 c-0.7540000000000004,0.7330000000000004 -1.9660000000000002,0.6920000000000007 -2.669,-0.0900000000000001 l-80.603,-89.576 C190.16767556762693,178.8146742563248 192.69367556762694,176.36067425632478 194.41467556762694,178.00167425632475 z" id="svg_20"/>
		<path class="st10" d="M163.27067556762694,219.81667425632475 l108.644,52.126 c0.9480000000000004,0.455 1.328,1.606 0.8370000000000004,2.536 l-4.306,8.158 c-0.4910000000000002,0.93 -1.6560000000000001,1.266 -2.566,0.7400000000000004 l-104.339,-60.284 C159.48267556762693,221.90267425632476 161.12667556762693,218.78767425632475 163.27067556762694,219.81667425632475 z" id="svg_21"/>
		<path class="st10" d="M146.57167556762693,269.2096742563248 l119.435,16.002 c1.042,0.14 1.7590000000000003,1.117 1.58,2.153 l-1.574,9.089 c-0.1790000000000001,1.036 -1.184,1.715 -2.212,1.496 l-117.861,-25.091 C143.61367556762696,272.36367425632477 144.21467556762695,268.89367425632474 146.57167556762693,269.2096742563248 z" id="svg_22"/>
		<path class="st10" d="M145.95267556762695,321.34467425632477 l118.534,-21.688 c1.034,-0.1890000000000001 2.018,0.519 2.168,1.5590000000000002 l1.312,9.131 c0.1500000000000001,1.041 -0.5960000000000004,1.9969999999999999 -1.641,2.107 l-119.846,12.558 C144.11467556762693,325.25867425632475 143.61367556762696,321.77267425632476 145.95267556762695,321.34467425632477 z" id="svg_23"/>
		<path class="st10" d="M161.47567556762698,371.11967425632474 l106.031,-57.256 c0.925,-0.5 2.08,-0.13 2.544,0.8130000000000004 l4.069,8.278 c0.464,0.9440000000000004 0.05100000000000004,2.083 -0.91,2.511 l-110.1,48.978 C160.93667556762693,375.4106742563248 159.38367556762694,372.24967425632474 161.47567556762698,371.11967425632474 z" id="svg_24"/>
		<path class="st10" d="M191.61967556762693,413.6616742563248 l83.148,-87.219 c0.7250000000000004,-0.7610000000000005 1.9380000000000002,-0.7670000000000005 2.6710000000000003,-0.013000000000000012 l6.428,6.616 c0.7330000000000004,0.7540000000000004 0.6920000000000007,1.9660000000000002 -0.0900000000000001,2.669 l-89.576,80.603 C192.43367556762695,417.90867425632473 189.97867556762696,415.38367425632475 191.61967556762693,413.6616742563248 z" id="svg_25"/>
		<path class="st10" d="M233.43567556762696,444.80667425632475 l52.126,-108.644 c0.455,-0.9480000000000004 1.606,-1.328 2.536,-0.8370000000000004 l8.158,4.306 c0.93,0.4910000000000002 1.266,1.6560000000000001 0.7400000000000004,2.566 l-60.284,104.339 C235.52067556762694,448.59467425632477 232.40667556762696,446.95067425632476 233.43567556762696,444.80667425632475 z" id="svg_26"/>
		<path class="st10" d="M282.8276755676269,461.5056742563248 l16.002,-119.435 c0.14,-1.042 1.117,-1.7590000000000003 2.153,-1.58 l9.089,1.574 c1.036,0.1790000000000001 1.715,1.184 1.496,2.212 l-25.091,117.861 C285.982675567627,464.4636742563248 282.51267556762696,463.8626742563248 282.8276755676269,461.5056742563248 z" id="svg_27"/>
		<path class="st10" d="M334.963675567627,462.12367425632476 l-21.688,-118.534 c-0.1890000000000001,-1.034 0.519,-2.018 1.5590000000000002,-2.168 l9.131,-1.312 c1.041,-0.1490000000000001 1.9969999999999999,0.5960000000000004 2.107,1.641 l12.558,119.846 C338.87767556762697,463.9626742563248 335.391675567627,464.4636742563248 334.963675567627,462.12367425632476 z" id="svg_28"/>
		<path class="st10" d="M384.73867556762696,446.6016742563247 l-57.256,-106.031 c-0.5,-0.925 -0.13,-2.08 0.8130000000000004,-2.544 l8.278,-4.069 c0.9440000000000004,-0.464 2.083,-0.05100000000000004 2.511,0.91 l48.978,110.1 C389.029675567627,447.1406742563248 385.86867556762695,448.6936742563248 384.73867556762696,446.6016742563247 z" id="svg_29"/>
		<path class="st10" d="M427.280675567627,416.45667425632473 l-87.219,-83.148 c-0.7610000000000005,-0.7250000000000004 -0.7670000000000005,-1.9380000000000002 -0.013000000000000012,-2.6710000000000003 l6.616,-6.428 c0.7540000000000004,-0.7330000000000004 1.9660000000000002,-0.6920000000000007 2.669,0.0900000000000001 l80.603,89.576 C431.52767556762694,415.64367425632474 429.00267556762697,418.0976742563248 427.280675567627,416.45667425632473 z" id="svg_30"/>
		<path class="st10" d="M458.42567556762697,374.6416742563248 l-108.644,-52.126 c-0.9480000000000004,-0.455 -1.328,-1.606 -0.8370000000000004,-2.536 l4.306,-8.158 c0.4910000000000002,-0.93 1.6560000000000001,-1.266 2.566,-0.7400000000000004 L460.154675567627,371.3666742563248 C462.213675567627,372.5556742563248 460.569675567627,375.6706742563248 458.42567556762697,374.6416742563248 z" id="svg_31"/>
		<path class="st10" d="M475.1246755676269,325.24867425632476 L355.689675567627,309.2466742563248 c-1.042,-0.14 -1.7590000000000003,-1.117 -1.58,-2.153 l1.574,-9.089 c0.1790000000000001,-1.036 1.184,-1.715 2.212,-1.496 l117.861,25.091 C478.082675567627,322.09467425632477 477.481675567627,325.5646742563248 475.1246755676269,325.24867425632476 z" id="svg_32"/>
		<path class="st10" d="M475.742675567627,273.11367425632477 l-118.534,21.688 c-1.034,0.1890000000000001 -2.018,-0.519 -2.168,-1.5590000000000002 l-1.312,-9.131 c-0.1490000000000001,-1.041 0.5960000000000004,-1.9969999999999999 1.641,-2.107 l119.846,-12.558 C477.5816755676269,269.1996742563248 478.082675567627,272.6856742563248 475.742675567627,273.11367425632477 z" id="svg_33"/>
		<path class="st10" d="M460.2206755676269,223.3386742563248 l-106.031,57.256 c-0.925,0.5 -2.08,0.13 -2.544,-0.8130000000000004 l-4.069,-8.278 c-0.464,-0.9440000000000004 -0.05100000000000004,-2.083 0.91,-2.511 l110.1,-48.978 C460.7596755676269,219.04767425632474 462.3126755676269,222.20867425632474 460.2206755676269,223.3386742563248 z" id="svg_34"/>
		<path class="st10" d="M430.07567556762694,180.79667425632476 l-83.148,87.219 c-0.7250000000000004,0.7610000000000005 -1.9380000000000002,0.7670000000000005 -2.6710000000000003,0.013000000000000012 l-6.428,-6.616 c-0.7330000000000004,-0.7540000000000004 -0.6920000000000007,-1.9660000000000002 0.0900000000000001,-2.669 l89.576,-80.603 C429.26267556762696,176.54967425632475 431.7166755676269,179.07467425632478 430.07567556762694,180.79667425632476 z" id="svg_35"/>
		<path class="st10" d="M388.260675567627,149.65167425632478 l-52.126,108.644 c-0.455,0.9480000000000004 -1.606,1.328 -2.536,0.8370000000000004 l-8.158,-4.306 c-0.93,-0.4910000000000002 -1.266,-1.6560000000000001 -0.7400000000000004,-2.566 l60.284,-104.339 C386.174675567627,145.86367425632477 389.289675567627,147.50767425632478 388.260675567627,149.65167425632478 z" id="svg_36"/>
	</g>
</g></g></svg>