<svg xmlns="http://www.w3.org/2000/svg" xmlns:xlink="http://www.w3.org/1999/xlink" version="1.1" style="" xml:space="preserve" width="524.0000014901161" height="598.3333337306976"><rect id="backgroundrect" width="100%" height="100%" x="0" y="0" fill="none" stroke="none"/>
<style type="text/css">
	.st0{fill:url(#SVGID_1_);}
	.st1{fill:url(#SVGID_00000182503662472992031330000006955550028113442461_);}
	.st2{fill:none;stroke:#3B6DB5;stroke-width:16.3018;stroke-miterlimit:10;}
	
		.st3{fill:none;stroke:url(#SVGID_00000119835376025057691640000010309215236792865470_);stroke-width:18.7483;stroke-miterlimit:10;}
	.st4{fill:none;stroke:#3B6DB5;stroke-width:14.0612;stroke-miterlimit:10;}
	.st5{fill:#315DA9;}
</style>

<g class="currentLayer" style=""><title>Layer 1</title>
	<linearGradient id="SVGID_1_" gradientUnits="userSpaceOnUse" x1="333.2034912109375" y1="418.551513671875" x2="774.627685546875" y2="653.4367065429688">
		<stop offset="0.0295" style="stop-color:#A1CEEC"/>
		<stop offset="0.1073" style="stop-color:#9AC9EA"/>
		<stop offset="0.6573" style="stop-color:#70ABDB"/>
		<stop offset="0.9388" style="stop-color:#60A0D5"/>
	</linearGradient>
	
	
		<linearGradient id="SVGID_00000029766380707572971940000007449068952991344821_" gradientUnits="userSpaceOnUse" x1="405.9071044921875" y1="391.09649658203125" x2="621.0095825195312" y2="606.198974609375">
		<stop offset="1.828964e-07" style="stop-color:#76A5D2"/>
		<stop offset="0.2256" style="stop-color:#719FCF"/>
		<stop offset="0.5305" style="stop-color:#618EC5"/>
		<stop offset="0.8793" style="stop-color:#4872B6"/>
		<stop offset="1" style="stop-color:#3E66B0"/>
	</linearGradient>
	
	
	
		<linearGradient id="SVGID_00000183946653067879647300000012918116296437257147_" gradientUnits="userSpaceOnUse" x1="440.3269958496094" y1="349.04168701171875" x2="648.1400146484375" y2="708.9843139648438">
		<stop offset="6.096548e-08" style="stop-color:#4F88C2"/>
		<stop offset="0.1521" style="stop-color:#548CC5"/>
		<stop offset="0.3386" style="stop-color:#6399CC"/>
		<stop offset="0.543" style="stop-color:#7CADD8"/>
		<stop offset="0.7602" style="stop-color:#9FC9E8"/>
		<stop offset="0.9856" style="stop-color:#CBEDFE"/>
		<stop offset="1" style="stop-color:#CEF0FF"/>
	</linearGradient><g class=""><polygon class="st0" points="261.33335876464844,9.92333984375 14.414344787597656,155.9143295288086 14.414344787597656,444.72435760498047 261.33335876464844,589.9233627319336 508.25230407714844,445.5183639526367 508.25230407714844,155.12133026123047 " id="svg_2"/><polygon style="fill:url(#SVGID_00000029766380707572971940000007449068952991344821_);" points="81.62933349609375,196.00931549072266 78.6373291015625,405.41036224365234 263.52732849121094,512.3963241577148 448.4172821044922,405.99532318115234 448.4172821044922,192.0223159790039 263.52732849121094,85.03633880615234 " id="svg_3" class=""/><polygon class="st2" points="263.52732849121094,15.906341552734375 21.195335388183594,158.4613265991211 21.195335388183594,440.47338104248047 263.52732849121094,582.2543563842773 505.8583221435547,441.2483444213867 505.8583221435547,157.68733978271484 " id="svg_4"/><polygon style="fill:none;stroke:url(#SVGID_00000183946653067879647300000012918116296437257147_);stroke-width:18.7483;stroke-miterlimit:10;" points="265.32237243652344,71.35333251953125 66.27131652832031,186.42032623291016 66.27131652832031,414.05135345458984 265.32237243652344,528.4923324584961 464.37327575683594,414.67635345458984 464.37327575683594,185.79431915283203 " id="svg_5" class=""/><polygon class="st4" points="265.32237243652344,85.03633880615234 80.43234252929688,192.60730743408203 80.43234252929688,405.41036224365234 265.32237243652344,512.3963241577148 450.2123260498047,405.99532318115234 450.2123260498047,192.0223159790039 " id="svg_6"/><g id="svg_7" class="">
		<circle class="st5" cx="266.27236676216125" cy="298.0863275527954" r="50.5620002746582" id="svg_8"/>
		<path class="st5" d="M294.454340883255,132.86033683013915 l-16.095,120.126 c-0.14,1.048 -1.124,1.77 -2.165,1.589 l-9.142,-1.5830000000000002 c-1.042,-0.1800000000000002 -1.725,-1.19 -1.505,-2.225 l25.237,-118.543 C291.28234088325496,129.88433683013915 294.77234088325497,130.48933683013917 294.454340883255,132.86033683013915 z" id="svg_9"/>
		<path class="st5" d="M242.01734088325497,132.23833683013913 l21.814,119.22 c0.19000000000000022,1.04 -0.522,2.03 -1.568,2.18 l-9.184,1.319 c-1.047,0.1500000000000002 -2.009,-0.5990000000000006 -2.119,-1.6510000000000002 l-12.63,-120.539 C238.08034088325496,130.38933683013914 241.58634088325505,129.88533683013918 242.01734088325497,132.23833683013913 z" id="svg_10"/>
		<path class="st5" d="M191.95434088325499,147.85033683013916 l57.587,106.644 c0.502,0.93 0.131,2.092 -0.8180000000000006,2.558 l-8.326,4.093 c-0.9490000000000006,0.466 -2.095,0.05100000000000007 -2.525,-0.915 L188.61134088325502,149.49333683013919 C187.639340883255,147.30833683013918 190.81734088325499,145.74633683013917 191.95434088325499,147.85033683013916 z" id="svg_11"/>
		<path class="st5" d="M149.16634088325503,178.16933683013917 l87.723,83.629 c0.7650000000000009,0.7300000000000006 0.771,1.949 0.013000000000000022,2.686 l-6.654,6.465 c-0.7580000000000009,0.7370000000000008 -1.9769999999999999,0.6960000000000012 -2.684,-0.09000000000000016 l-81.069,-90.094 C144.89434088325498,178.98733683013916 147.434340883255,176.51833683013916 149.16634088325503,178.16933683013917 z" id="svg_12"/>
		<path class="st5" d="M117.84134088325499,220.22633683013913 l109.273,52.428 c0.9530000000000006,0.457 1.336,1.6150000000000002 0.8420000000000006,2.551 l-4.331,8.205 c-0.4940000000000003,0.935 -1.665,1.2730000000000001 -2.581,0.7440000000000008 l-104.942,-60.633 C114.03134088325498,222.32433683013915 115.684340883255,219.19133683013916 117.84134088325499,220.22633683013913 z" id="svg_13"/>
		<path class="st5" d="M101.045340883255,269.90533683013916 l120.126,16.095 c1.048,0.14 1.77,1.124 1.589,2.165 l-1.5830000000000002,9.142 c-0.1800000000000002,1.042 -1.19,1.725 -2.225,1.505 l-118.543,-25.237 C98.07034088325503,273.0773368301392 98.67434088325501,269.5873368301392 101.045340883255,269.90533683013916 z" id="svg_14"/>
		<path class="st5" d="M100.42334088325498,322.3423368301392 l119.22,-21.814 c1.04,-0.19000000000000022 2.03,0.522 2.18,1.568 l1.319,9.184 c0.1500000000000002,1.047 -0.5990000000000006,2.009 -1.6510000000000002,2.119 l-120.539,12.63 C98.57434088325499,326.2783368301392 98.07034088325503,322.7723368301391 100.42334088325498,322.3423368301392 z" id="svg_15"/>
		<path class="st5" d="M116.03634088325498,372.40533683013916 l106.644,-57.587 c0.93,-0.502 2.092,-0.131 2.558,0.8180000000000006 l4.093,8.326 c0.466,0.9490000000000006 0.05100000000000007,2.095 -0.915,2.525 l-110.737,49.261 C115.494340883255,376.7203368301391 113.93134088325502,373.54133683013913 116.03634088325498,372.40533683013916 z" id="svg_16"/>
		<path class="st5" d="M146.35434088325502,415.1933368301392 l83.629,-87.723 c0.7300000000000006,-0.7650000000000009 1.949,-0.771 2.686,-0.013000000000000022 l6.465,6.654 c0.7370000000000008,0.7580000000000009 0.6960000000000012,1.9769999999999999 -0.09000000000000016,2.684 l-90.094,81.069 C147.172340883255,419.4653368301391 144.70434088325499,416.92433683013917 146.35434088325502,415.1933368301392 z" id="svg_17"/>
		<path class="st5" d="M188.41134088325498,446.5183368301391 l52.428,-109.273 c0.457,-0.9530000000000006 1.6150000000000002,-1.336 2.551,-0.8420000000000006 l8.205,4.331 c0.935,0.4940000000000003 1.2730000000000001,1.665 0.7440000000000008,2.581 l-60.633,104.942 C190.509340883255,450.32833683013916 187.377340883255,448.67433683013917 188.41134088325498,446.5183368301391 z" id="svg_18"/>
		<path class="st5" d="M238.09034088325495,463.3133368301392 l16.095,-120.126 c0.14,-1.048 1.124,-1.77 2.165,-1.589 l9.142,1.5830000000000002 c1.042,0.1800000000000002 1.725,1.19 1.505,2.225 l-25.237,118.543 C241.26334088325495,466.2893368301392 237.77234088325497,465.68433683013916 238.09034088325495,463.3133368301392 z" id="svg_19"/>
		<path class="st5" d="M290.52734088325496,463.93533683013914 l-21.814,-119.22 c-0.19000000000000022,-1.04 0.522,-2.03 1.568,-2.18 l9.184,-1.319 c1.047,-0.1500000000000002 2.009,0.5990000000000006 2.119,1.6510000000000002 l12.63,120.539 C294.464340883255,465.7843368301392 290.958340883255,466.2883368301392 290.52734088325496,463.93533683013914 z" id="svg_20"/>
		<path class="st5" d="M340.59034088325495,448.32333683013917 L283.00334088325496,341.67933683013916 c-0.502,-0.93 -0.131,-2.092 0.8180000000000006,-2.558 l8.326,-4.093 c0.9490000000000006,-0.466 2.095,-0.05100000000000007 2.525,0.915 L343.933340883255,446.68033683013914 C344.906340883255,448.8653368301392 341.727340883255,450.4273368301392 340.59034088325495,448.32333683013917 z" id="svg_21"/>
		<path class="st5" d="M383.37834088325496,418.0043368301392 l-87.723,-83.629 c-0.7650000000000009,-0.7300000000000006 -0.771,-1.949 -0.013000000000000022,-2.686 l6.654,-6.465 c0.7580000000000009,-0.7370000000000008 1.9769999999999999,-0.6960000000000012 2.684,0.09000000000000016 l81.069,90.094 C387.650340883255,417.1863368301391 385.11034088325505,419.65533683013916 383.37834088325496,418.0043368301392 z" id="svg_22"/>
		<path class="st5" d="M414.703340883255,375.9473368301392 l-109.273,-52.428 c-0.9530000000000006,-0.457 -1.336,-1.6150000000000002 -0.8420000000000006,-2.551 l4.331,-8.205 c0.4940000000000003,-0.935 1.665,-1.2730000000000001 2.581,-0.7440000000000008 l104.942,60.633 C418.51334088325495,373.8493368301391 416.86034088325505,376.98233683013916 414.703340883255,375.9473368301392 z" id="svg_23"/>
		<path class="st5" d="M431.49934088325506,326.2683368301391 L311.37334088325497,310.17433683013917 c-1.048,-0.14 -1.77,-1.124 -1.589,-2.165 l1.5830000000000002,-9.142 c0.1800000000000002,-1.042 1.19,-1.725 2.225,-1.505 l118.543,25.237 C434.47434088325497,323.0963368301392 433.87034088325504,326.5863368301392 431.49934088325506,326.2683368301391 z" id="svg_24"/>
		<path class="st5" d="M432.121340883255,273.83133683013915 l-119.22,21.814 c-1.04,0.19000000000000022 -2.03,-0.522 -2.18,-1.568 l-1.319,-9.184 c-0.1500000000000002,-1.047 0.5990000000000006,-2.009 1.6510000000000002,-2.119 l120.539,-12.63 C433.97034088325495,269.8953368301392 434.47434088325497,273.40133683013914 432.121340883255,273.83133683013915 z" id="svg_25"/>
		<path class="st5" d="M416.50834088325496,223.76833683013916 l-106.644,57.587 c-0.93,0.502 -2.092,0.131 -2.558,-0.8180000000000006 l-4.093,-8.326 c-0.466,-0.9490000000000006 -0.05100000000000007,-2.095 0.915,-2.525 l110.737,-49.261 C417.05134088325497,219.45333683013916 418.613340883255,222.63233683013914 416.50834088325496,223.76833683013916 z" id="svg_26"/>
		<path class="st5" d="M386.190340883255,180.98033683013915 l-83.629,87.724 c-0.7300000000000006,0.7650000000000009 -1.949,0.771 -2.686,0.013000000000000022 l-6.465,-6.654 c-0.7370000000000008,-0.7580000000000009 -0.6960000000000012,-1.9769999999999999 0.09000000000000016,-2.684 l90.094,-81.069 C385.372340883255,176.70833683013916 387.84034088325495,179.24933683013916 386.190340883255,180.98033683013915 z" id="svg_27"/>
		<path class="st5" d="M344.13334088325496,149.65533683013916 l-52.428,109.273 c-0.457,0.9530000000000006 -1.6150000000000002,1.336 -2.551,0.8420000000000006 l-8.205,-4.331 c-0.935,-0.4940000000000003 -1.2730000000000001,-1.665 -0.7440000000000008,-2.581 l60.633,-104.942 C342.035340883255,145.84533683013916 345.16734088325495,147.49933683013916 344.13334088325496,149.65533683013916 z" id="svg_28"/>
	</g></g>
	
		
	
	
</g></svg>