<svg xmlns="http://www.w3.org/2000/svg" xmlns:xlink="http://www.w3.org/1999/xlink" version="1.1" style="enable-background:new 0 0 1080 1080;" xml:space="preserve" width="525.3333334326744" height="591.0000000596046"><rect id="backgroundrect" width="100%" height="100%" x="0" y="0" fill="none" stroke="none" style="" class="selected"/>
<style type="text/css">
	.st0{fill:url(#SVGID_1_);}
	.st1{fill:url(#SVGID_00000103227817614138385590000011593069492276777407_);}
	.st2{fill:url(#SVGID_00000093855326316961905630000008405135635637913755_);}
	.st3{fill:url(#SVGID_00000135657820891467932160000010606049535187425668_);}
	.st4{fill:none;stroke:#613C94;stroke-width:16.3421;stroke-miterlimit:10;}
	
		.st5{fill:none;stroke:url(#SVGID_00000082356863332570582010000008968106645259741631_);stroke-width:18.6767;stroke-miterlimit:10;}
	.st6{fill:none;stroke:#5F3F97;stroke-width:14.0075;stroke-miterlimit:10;}
	.st7{fill:#693F99;}
</style>

<g class="currentLayer" style=""><title>Layer 1</title><g id="svg_1" class="">
	<linearGradient id="SVGID_1_" gradientUnits="userSpaceOnUse" x1="377.4779968261719" y1="810.0020141601562" x2="457.25079345703125" y2="695.1035766601562" transform="translate(-107.33332824707031,-179.3333282470703) translate(-167.3333282470703,-64) ">
		<stop offset="0.1058" style="stop-color:#9D86C0"/>
		<stop offset="0.2866" style="stop-color:#8C6FB3"/>
		<stop offset="0.5535" style="stop-color:#6E459B"/>
	</linearGradient>
	<polygon class="st0" points="92.23934936523438,474.2606658935547 58.46234130859375,525.4706878662109 125.22134399414062,532.6236419677734 163.65733337402344,586.6666717529297 198.33836364746094,530.4636688232422 " id="svg_2"/>
	
		<linearGradient id="SVGID_00000119799962521735159000000013644697681103336067_" gradientUnits="userSpaceOnUse" x1="696.8411865234375" y1="802.274169921875" x2="656.655517578125" y2="741.4273071289062" transform="translate(-107.33332824707031,-179.3333282470703) translate(-167.3333282470703,-64) ">
		<stop offset="0.1058" style="stop-color:#9D86C0"/>
		<stop offset="0.3426" style="stop-color:#8C6FB3"/>
		<stop offset="0.6921" style="stop-color:#6E459B"/>
	</linearGradient>
	<polygon style="fill:url(#SVGID_00000119799962521735159000000013644697681103336067_);" points="439.0763397216797,474.2606658935547 472.85337829589844,525.4706878662109 406.09434509277344,532.6236419677734 367.65733337402344,586.6666717529297 332.9763641357422,530.4636688232422 " id="svg_3"/>
	
		<linearGradient id="SVGID_00000123438831198638724790000005823514856401960639_" gradientUnits="userSpaceOnUse" x1="342.1571960449219" y1="425.8822021484375" x2="772.098388671875" y2="671.468994140625" transform="translate(-107.33332824707031,-179.3333282470703) translate(-167.3333282470703,-64) ">
		<stop offset="0.0295" style="stop-color:#C1B5D9"/>
		<stop offset="0.2556" style="stop-color:#AD9DCB"/>
		<stop offset="0.7074" style="stop-color:#8A73B3"/>
		<stop offset="0.9388" style="stop-color:#7C63A9"/>
	</linearGradient>
	<polygon style="fill:url(#SVGID_00000123438831198638724790000005823514856401960639_);" points="265.33335876464844,6.6666717529296875 19.35833740234375,152.1006622314453 19.35833740234375,439.8066864013672 265.33335876464844,584.4506683349609 511.30833435058594,440.5977020263672 511.30833435058594,151.31068420410156 " id="svg_4"/>
	
		<linearGradient id="SVGID_00000021120490060005375120000011460652962236068507_" gradientUnits="userSpaceOnUse" x1="353.1596984863281" y1="438.7956848144531" x2="679.2982177734375" y2="610.0499267578125" transform="translate(-107.33332824707031,-179.3333282470703) translate(-167.3333282470703,-64) ">
		<stop offset="0" style="stop-color:#9D86C0"/>
		<stop offset="0.2257" style="stop-color:#9981BD"/>
		<stop offset="0.5024" style="stop-color:#8E72B4"/>
		<stop offset="0.8044" style="stop-color:#7D59A6"/>
		<stop offset="1" style="stop-color:#6E459B"/>
	</linearGradient>
	<polygon style="fill:url(#SVGID_00000021120490060005375120000011460652962236068507_);" points="86.31533813476562,192.40467834472656 83.33535766601562,401.0056610107422 267.51930236816406,507.5826873779297 451.70237731933594,401.5876922607422 451.70237731933594,188.4326629638672 267.51930236816406,81.85566711425781 " id="svg_5"/>
	<polygon class="st4" points="267.51930236816406,12.627670288085938 26.11334228515625,154.63768005371094 26.11334228515625,435.5726776123047 267.51930236816406,576.8106536865234 508.9243621826172,436.3436737060547 508.9243621826172,153.86668395996094 " id="svg_6"/>
	
		<linearGradient id="SVGID_00000096025644840907449470000009824238186187352723_" gradientUnits="userSpaceOnUse" x1="336.3450012207031" y1="538.8847045898438" x2="751.6024780273438" y2="538.8847045898438" transform="translate(-107.33332824707031,-179.3333282470703) translate(-167.3333282470703,-64) ">
		<stop offset="8.709354e-09" style="stop-color:#7552A0"/>
		<stop offset="0.1604" style="stop-color:#7957A3"/>
		<stop offset="0.3571" style="stop-color:#8566AC"/>
		<stop offset="0.5727" style="stop-color:#997FBA"/>
		<stop offset="0.8002" style="stop-color:#B5A1CE"/>
		<stop offset="1" style="stop-color:#D2C6E3"/>
	</linearGradient>
	
		<polygon style="fill:none;stroke:url(#SVGID_00000096025644840907449470000009824238186187352723_);stroke-width:18.6767;stroke-miterlimit:10;" points="269.30735778808594,67.86268615722656 71.016357421875,182.4896697998047 71.016357421875,409.2506561279297 269.30735778808594,523.2546844482422 467.5973358154297,409.87364196777344 467.5973358154297,181.86668395996094 " id="svg_7"/>
	<polygon class="st6" points="267.51930236816406,83.70967102050781 83.33535766601562,190.8696746826172 83.33535766601562,402.8596649169922 267.51930236816406,509.4366912841797 451.70237731933594,403.4416961669922 451.70237731933594,190.2866668701172 " id="svg_8"/>
	<g id="svg_9">
		<circle class="st7" cx="265.3333435058594" cy="294.7196502685547" r="50.36899948120117" id="svg_10"/>
		<path class="st7" d="M293.40734350585933,130.12367175292968 l-16.033,119.667 c-0.14,1.044 -1.119,1.7630000000000003 -2.157,1.5830000000000002 l-9.107,-1.577 c-1.038,-0.18000000000000005 -1.719,-1.186 -1.499,-2.216 l25.14,-118.09 C290.24734350585936,127.15967175292968 293.72434350585934,127.76167175292971 293.40734350585933,130.12367175292968 z" id="svg_11"/>
		<path class="st7" d="M241.17034350585936,129.50367175292968 l21.73,118.764 c0.19000000000000006,1.036 -0.52,2.022 -1.562,2.172 l-9.148,1.314 c-1.043,0.15000000000000005 -2.001,-0.5970000000000002 -2.111,-1.6440000000000001 l-12.582,-120.079 C237.24934350585937,127.66167175292969 240.74234350585937,127.15967175292968 241.17034350585936,129.50367175292968 z" id="svg_12"/>
		<path class="st7" d="M191.29934350585938,145.05667175292967 l57.367,106.237 c0.5,0.927 0.131,2.084 -0.8150000000000002,2.549 l-8.295,4.077 c-0.9450000000000002,0.465 -2.087,0.05100000000000002 -2.516,-0.912 l-49.073,-110.314 C187.00034350585935,144.5166717529297 190.16734350585938,142.96067175292967 191.29934350585938,145.05667175292967 z" id="svg_13"/>
		<path class="st7" d="M148.67434350585938,175.2596717529297 l87.388,83.31 c0.7620000000000002,0.7270000000000002 0.7680000000000002,1.9420000000000002 0.013000000000000006,2.676 l-6.6290000000000004,6.441 c-0.7550000000000002,0.7340000000000002 -1.97,0.6930000000000004 -2.6740000000000004,-0.09000000000000004 l-80.76,-89.75 C144.4193435058594,176.0746717529297 146.94934350585936,173.6156717529297 148.67434350585938,175.2596717529297 z" id="svg_14"/>
		<path class="st7" d="M117.4693435058594,217.15567175292966 l108.855,52.228 c0.9500000000000002,0.456 1.331,1.609 0.8390000000000002,2.541 l-4.314,8.174 c-0.4920000000000001,0.932 -1.6590000000000005,1.268 -2.571,0.7410000000000002 l-104.541,-60.401 C113.67334350585935,219.2456717529297 115.3203435058594,216.1256717529297 117.4693435058594,217.15567175292966 z" id="svg_15"/>
		<path class="st7" d="M100.73734350585937,266.6446717529297 l119.667,16.033 c1.044,0.14 1.7630000000000003,1.119 1.5830000000000002,2.157 l-1.577,9.107 c-0.18000000000000005,1.038 -1.186,1.719 -2.216,1.499 l-118.09,-25.14 C97.77434350585935,269.8056717529297 98.37634350585938,266.32867175292967 100.73734350585937,266.6446717529297 z" id="svg_16"/>
		<path class="st7" d="M100.1183435058594,318.8816717529297 l118.764,-21.731 c1.036,-0.19000000000000006 2.022,0.52 2.172,1.562 l1.314,9.148 c0.15000000000000005,1.043 -0.5970000000000002,2.001 -1.6440000000000001,2.111 l-120.079,12.582 C98.27634350585936,322.80367175292963 97.77434350585935,319.3106717529297 100.1183435058594,318.8816717529297 z" id="svg_17"/>
		<path class="st7" d="M115.6713435058594,368.7536717529297 l106.237,-57.367 c0.927,-0.5 2.084,-0.131 2.549,0.8150000000000002 l4.077,8.295 c0.465,0.9450000000000002 0.05100000000000002,2.087 -0.912,2.516 l-110.314,49.073 C115.13134350585938,373.05267175292965 113.57434350585936,369.88567175292974 115.6713435058594,368.7536717529297 z" id="svg_18"/>
		<path class="st7" d="M145.87434350585937,411.3786717529297 l83.31,-87.388 c0.7270000000000002,-0.7620000000000002 1.9420000000000002,-0.7680000000000002 2.676,-0.013000000000000006 l6.441,6.6290000000000004 c0.7340000000000002,0.7550000000000002 0.6930000000000004,1.97 -0.09000000000000004,2.6740000000000004 l-89.75,80.76 C146.6883435058594,415.6336717529297 144.2293435058594,413.1026717529297 145.87434350585937,411.3786717529297 z" id="svg_19"/>
		<path class="st7" d="M187.7703435058594,442.5836717529297 l52.228,-108.855 c0.456,-0.9500000000000002 1.609,-1.331 2.541,-0.8390000000000002 l8.174,4.314 c0.932,0.4920000000000001 1.268,1.6590000000000005 0.7410000000000002,2.571 l-60.401,104.541 C189.86034350585936,446.3786717529297 186.73934350585938,444.73167175292974 187.7703435058594,442.5836717529297 z" id="svg_20"/>
		<path class="st7" d="M237.25934350585936,459.3146717529297 l16.033,-119.667 c0.14,-1.044 1.119,-1.7630000000000003 2.157,-1.5830000000000002 l9.107,1.577 c1.038,0.18000000000000005 1.719,1.186 1.499,2.216 l-25.14,118.09 C240.4193435058594,462.27867175292965 236.94234350585936,461.6766717529297 237.25934350585936,459.3146717529297 z" id="svg_21"/>
		<path class="st7" d="M289.4963435058594,459.9346717529297 l-21.73,-118.764 c-0.19000000000000006,-1.036 0.52,-2.022 1.562,-2.172 l9.148,-1.314 c1.043,-0.15000000000000005 2.001,0.5970000000000002 2.111,1.6440000000000001 l12.582,120.079 C293.4173435058593,461.7766717529297 289.9243435058594,462.27867175292965 289.4963435058594,459.9346717529297 z" id="svg_22"/>
		<path class="st7" d="M339.36734350585937,444.3816717529297 l-57.367,-106.237 c-0.5,-0.927 -0.131,-2.084 0.8150000000000002,-2.549 l8.295,-4.077 c0.9450000000000002,-0.465 2.087,-0.05100000000000002 2.516,0.912 l49.073,110.314 C343.66634350585934,444.9216717529297 340.49934350585943,446.4776717529297 339.36734350585937,444.3816717529297 z" id="svg_23"/>
		<path class="st7" d="M381.99234350585937,414.17867175292963 l-87.388,-83.31 c-0.7620000000000002,-0.7270000000000002 -0.7680000000000002,-1.9420000000000002 -0.013000000000000006,-2.676 l6.6290000000000004,-6.441 c0.7550000000000002,-0.7340000000000002 1.97,-0.6930000000000004 2.6740000000000004,0.09000000000000004 l80.76,89.75 C386.24734350585936,413.3636717529297 383.7173435058594,415.82267175292964 381.99234350585937,414.17867175292963 z" id="svg_24"/>
		<path class="st7" d="M413.1973435058594,372.2826717529297 l-108.855,-52.228 c-0.9500000000000002,-0.456 -1.331,-1.609 -0.8390000000000002,-2.541 l4.314,-8.174 c0.4920000000000001,-0.932 1.6590000000000005,-1.268 2.571,-0.7410000000000002 l104.541,60.401 C416.99334350585934,370.19267175292964 415.3463435058594,373.31267175292965 413.1973435058594,372.2826717529297 z" id="svg_25"/>
		<path class="st7" d="M429.9293435058594,322.79367175292964 l-119.667,-16.033 c-1.044,-0.14 -1.7630000000000003,-1.119 -1.5830000000000002,-2.157 l1.577,-9.107 c0.18000000000000005,-1.038 1.186,-1.719 2.216,-1.499 l118.09,25.14 C432.89234350585934,319.6326717529297 432.29034350585937,323.10967175292967 429.9293435058594,322.79367175292964 z" id="svg_26"/>
		<path class="st7" d="M430.5483435058594,270.5566717529297 L311.7843435058594,292.2866717529297 c-1.036,0.19000000000000006 -2.022,-0.52 -2.172,-1.562 l-1.314,-9.148 c-0.15000000000000005,-1.043 0.5970000000000002,-2.001 1.6440000000000001,-2.111 l120.079,-12.582 C432.3903435058594,266.6346717529297 432.89234350585934,270.1276717529297 430.5483435058594,270.5566717529297 z" id="svg_27"/>
		<path class="st7" d="M414.9953435058594,220.68467175292966 l-106.237,57.367 c-0.927,0.5 -2.084,0.131 -2.549,-0.8150000000000002 l-4.077,-8.294 c-0.465,-0.9450000000000002 -0.05100000000000002,-2.087 0.912,-2.516 l110.314,-49.073 C415.5353435058594,216.38567175292968 417.0923435058594,219.5526717529297 414.9953435058594,220.68467175292966 z" id="svg_28"/>
		<path class="st7" d="M384.7923435058593,178.05967175292966 l-83.31,87.388 c-0.7270000000000002,0.7620000000000002 -1.9420000000000002,0.7680000000000002 -2.676,0.013000000000000006 l-6.441,-6.6290000000000004 c-0.7340000000000002,-0.7550000000000002 -0.6930000000000004,-1.97 0.09000000000000004,-2.6740000000000004 l89.75,-80.76 C383.97834350585936,173.80467175292966 386.4373435058594,176.33567175292967 384.7923435058593,178.05967175292966 z" id="svg_29"/>
		<path class="st7" d="M342.89634350585936,146.85467175292968 l-52.228,108.855 c-0.456,0.9500000000000002 -1.609,1.331 -2.541,0.8390000000000002 l-8.174,-4.314 c-0.932,-0.4920000000000001 -1.268,-1.6590000000000005 -0.7410000000000002,-2.571 l60.401,-104.541 C340.80634350585933,143.05967175292966 343.9273435058594,144.7066717529297 342.89634350585936,146.85467175292968 z" id="svg_30"/>
	</g>
</g></g></svg>