<svg xmlns="http://www.w3.org/2000/svg" xmlns:xlink="http://www.w3.org/1999/xlink" version="1.1" style="enable-background:new 0 0 1080 1080;" xml:space="preserve" width="606.3333343863487" height="587.3333353996277"><rect id="backgroundrect" width="100%" height="100%" x="0" y="0" fill="none" stroke="none"/>
<style type="text/css">
	.st0{fill:url(#SVGID_1_);}
	.st1{fill:#62737B;}
	.st2{fill:#9DB1B5;}
	.st3{fill:#C4CED4;}
	.st4{fill:url(#SVGID_00000041279748913663342620000007490198798616999101_);}
	.st5{fill:url(#SVGID_00000063630974094200709270000002790875494039370144_);}
	.st6{fill:none;stroke:#64777C;stroke-width:16.2359;stroke-miterlimit:10;}
	
		.st7{fill:none;stroke:url(#SVGID_00000003073867639514708720000008897320213337304988_);stroke-width:18.5553;stroke-miterlimit:10;}
	.st8{fill:url(#SVGID_00000161599689927618555230000017167024040145968803_);}
	.st9{fill:none;stroke:#46585B;stroke-width:13.9165;stroke-miterlimit:10;}
	.st10{fill:#45565A;}
</style>

<g class="currentLayer" style=""><title>Layer 1</title><g id="svg_1" class="">
	
		<linearGradient id="SVGID_1_" gradientUnits="userSpaceOnUse" x1="1466.2186279296875" y1="799.5750732421875" x2="1575.6519775390625" y2="641.9561767578125" gradientTransform="matrix(1 0 0 1 -1100.8511 0)" transform="translate(4,-19.33333396911621) translate(-242,-227.3333282470703) ">
		<stop offset="0.1058" style="stop-color:#B9B6D7"/>
		<stop offset="0.2411" style="stop-color:#949BB0"/>
		<stop offset="0.3661" style="stop-color:#798793"/>
		<stop offset="0.4744" style="stop-color:#697A81"/>
		<stop offset="0.5535" style="stop-color:#63767B"/>
	</linearGradient>
	<polygon class="st0" points="110.82699584960938,425.9393711090088 64.53201293945312,495.00632667541504 149.4119873046875,513.2813510894775 212.27899169921875,581.402322769165 256.2489929199219,501.73935890197754 " id="svg_2"/>
	<polygon class="st1" points="547.2760009765625,308.6233310699463 599.3400268554688,268.2023410797119 538.2999877929688,269.91037940979004 538.2999877929688,316.0243320465088 " id="svg_3"/>
	<polygon class="st2" points="599.3400268554688,268.2023410797119 599.3400268554688,195.90032386779785 542.8880004882812,195.90032386779785 542.8880004882812,269.78232765197754 " id="svg_4"/>
	<polygon class="st3" points="542.8880004882812,151.92934608459473 599.3400268554688,195.7663516998291 538.2999877929688,195.7663516998291 538.2999877929688,146.23635292053223 " id="svg_5"/>
	<polygon class="st1" points="58.553009033203125,309.4533176422119 6.4889984130859375,268.39332008361816 67.52999877929688,270.1283359527588 67.52999877929688,316.9713535308838 " id="svg_6"/>
	<polygon class="st2" points="6.4889984130859375,268.39332008361816 6.4889984130859375,194.94735145568848 62.941986083984375,194.94735145568848 62.941986083984375,269.9983310699463 " id="svg_7"/>
	<polygon class="st3" points="62.941986083984375,150.4173526763916 6.4889984130859375,194.94735145568848 67.52999877929688,194.94735145568848 67.52999877929688,144.63433265686035 " id="svg_8"/>
	<polygon class="st1" points="53.501007080078125,418.2843418121338 18.14300537109375,389.42933082580566 59.59698486328125,390.6493320465088 59.59698486328125,423.56736183166504 " id="svg_9"/>
	<polygon class="st2" points="18.14300537109375,389.42933082580566 18.14300537109375,337.81629371643066 56.480987548828125,337.81629371643066 56.480987548828125,390.5573215484619 " id="svg_10"/>
	<polygon class="st3" points="56.480987548828125,306.5233554840088 18.14300537109375,337.81629371643066 59.59698486328125,337.81629371643066 59.59698486328125,302.4592990875244 " id="svg_11"/>
	<polygon class="st1" points="545.5650024414062,419.28833961486816 580.9219970703125,390.4332981109619 539.468017578125,391.65332984924316 539.468017578125,424.57236671447754 " id="svg_12"/>
	<polygon class="st2" points="580.9219970703125,390.4332981109619 580.9219970703125,338.8203525543213 542.583984375,338.8203525543213 542.583984375,391.56138038635254 " id="svg_13"/>
	<polygon class="st3" points="542.583984375,307.52732276916504 580.9219970703125,338.8203525543213 539.468017578125,338.8203525543213 539.468017578125,303.4633274078369 " id="svg_14"/>
	
		<linearGradient id="SVGID_00000047752114670830847050000008540272196857117314_" gradientUnits="userSpaceOnUse" x1="1010.8013916015625" y1="801.5062255859375" x2="1120.234619140625" y2="643.8873291015625" gradientTransform="matrix(-1 0 0 1 1720.8937 0)" transform="translate(4,-19.33333396911621) translate(-242,-227.3333282470703) ">
		<stop offset="0.1058" style="stop-color:#B9B6D7"/>
		<stop offset="0.2411" style="stop-color:#949BB0"/>
		<stop offset="0.3661" style="stop-color:#798793"/>
		<stop offset="0.4744" style="stop-color:#697A81"/>
		<stop offset="0.5535" style="stop-color:#63767B"/>
	</linearGradient>
	<polygon style="fill:url(#SVGID_00000047752114670830847050000008540272196857117314_);" points="488.63299560546875,427.8703098297119 534.927978515625,496.93735694885254 450.0479736328125,515.212381362915 387.1810302734375,583.3333530426025 343.21099853515625,503.6703281402588 " id="svg_15"/>
	
		<linearGradient id="SVGID_00000107575126675894253650000001213102119510527886_" gradientUnits="userSpaceOnUse" x1="294.93389892578125" y1="391.3634033203125" x2="780.6270141601562" y2="683.0831298828125" transform="translate(4,-19.33333396911621) translate(-242,-227.3333282470703) ">
		<stop offset="0.0295" style="stop-color:#D2E2E3"/>
		<stop offset="0.2485" style="stop-color:#BBCDCE"/>
		<stop offset="0.705" style="stop-color:#91A4A8"/>
		<stop offset="0.9388" style="stop-color:#819599"/>
	</linearGradient>
	<polygon style="fill:url(#SVGID_00000107575126675894253650000001213102119510527886_);" points="299.43402099609375,3.3333377838134766 55.0570068359375,147.82235145568848 55.0570068359375,433.65931129455566 299.43402099609375,577.3633823394775 543.8109741210938,434.4443759918213 543.8109741210938,147.0373477935791 " id="svg_16"/>
	<polygon class="st6" points="299.43402099609375,11.931329727172852 59.59698486328125,153.01934242248535 59.59698486328125,432.1283359527588 299.43402099609375,572.4493808746338 539.27099609375,432.8943271636963 539.27099609375,152.25234413146973 " id="svg_17"/>
	
		<linearGradient id="SVGID_00000129174196532312640450000009721585674244819600_" gradientUnits="userSpaceOnUse" x1="496.91680908203125" y1="309.0730895996094" x2="577.9476928710938" y2="768.6220703125" transform="translate(4,-19.33333396911621) translate(-242,-227.3333282470703) ">
		<stop offset="8.709354e-09" style="stop-color:#6A7E80"/>
		<stop offset="0.1751" style="stop-color:#6F8385"/>
		<stop offset="0.3898" style="stop-color:#7E9194"/>
		<stop offset="0.6251" style="stop-color:#97A7AC"/>
		<stop offset="0.8736" style="stop-color:#BAC7CD"/>
		<stop offset="1" style="stop-color:#CEDAE1"/>
	</linearGradient>
	
		<polygon style="fill:none;stroke:url(#SVGID_00000129174196532312640450000009721585674244819600_);stroke-width:18.5553;stroke-miterlimit:10;" points="299.43402099609375,65.97335243225098 102.4320068359375,179.8553409576416 102.4320068359375,405.1433506011963 299.43402099609375,518.4073276519775 496.43597412109375,405.7623691558838 496.43597412109375,179.23635292053223 " id="svg_18"/>
	
		<linearGradient id="SVGID_00000080921603206885834610000015455196220341037202_" gradientUnits="userSpaceOnUse" x1="349.6361083984375" y1="440.2449035644531" x2="673.6555786132812" y2="610.3864135742188" transform="translate(4,-19.33333396911621) translate(-242,-227.3333282470703) ">
		<stop offset="0" style="stop-color:#B1BCC1"/>
		<stop offset="0.1772" style="stop-color:#ACB7BC"/>
		<stop offset="0.3945" style="stop-color:#9DA9AE"/>
		<stop offset="0.6326" style="stop-color:#849296"/>
		<stop offset="0.884" style="stop-color:#617276"/>
		<stop offset="1" style="stop-color:#4F6164"/>
	</linearGradient>
	<polygon style="fill:url(#SVGID_00000080921603206885834610000015455196220341037202_);" points="119.40798950195312,190.54033851623535 116.44699096679688,397.78537940979004 299.43402099609375,503.6703281402588 482.4210205078125,398.36435890197754 482.4210205078125,186.59432411193848 299.43402099609375,80.7093448638916 " id="svg_19"/>
	<polygon class="st9" points="299.43402099609375,80.7093448638916 116.44699096679688,187.1733341217041 116.44699096679688,397.78537940979004 299.43402099609375,503.6703281402588 482.4210205078125,398.36435890197754 482.4210205078125,186.59432411193848 " id="svg_20"/>
	<g id="svg_21">
		<circle class="st10" cx="299.43402099609375" cy="292.1903324127197" r="50.04199981689453" id="svg_22"/>
		<path class="st10" d="M327.326,128.6643377838135 L311.39700000000005,247.5533377838135 c-0.139,1.037 -1.112,1.7510000000000003 -2.143,1.573 l-9.048,-1.5670000000000002 c-1.031,-0.17900000000000005 -1.707,-1.178 -1.49,-2.202 l24.977,-117.322 C324.18600000000004,125.7193377838135 327.64,126.31733778381346 327.326,128.6643377838135 z" id="svg_23"/>
		<path class="st10" d="M275.428,128.04833778381345 l21.589,117.993 c0.18800000000000006,1.029 -0.516,2.009 -1.552,2.158 l-9.089,1.306 c-1.036,0.14900000000000005 -1.988,-0.5930000000000002 -2.097,-1.6340000000000003 l-12.5,-119.299 C271.532,126.21833778381347 275.00199999999995,125.7193377838135 275.428,128.04833778381345 z" id="svg_24"/>
		<path class="st10" d="M225.88099999999997,143.50033778381345 l56.994,105.546 c0.4970000000000001,0.921 0.13,2.07 -0.809,2.532 l-8.241,4.05 c-0.9390000000000002,0.462 -2.074,0.05000000000000002 -2.499,-0.906 l-48.754,-109.597 C221.61,142.96333778381347 224.75599999999997,141.41733778381348 225.88099999999997,143.50033778381345 z" id="svg_25"/>
		<path class="st10" d="M183.53300000000002,173.50633778381348 l86.821,82.768 c0.7570000000000002,0.7220000000000002 0.7630000000000002,1.929 0.013000000000000006,2.6580000000000004 l-6.586,6.399 c-0.7510000000000002,0.7290000000000002 -1.957,0.6890000000000004 -2.657,-0.08900000000000004 l-80.235,-89.167 C179.305,174.31633778381348 181.81900000000002,171.8733377838135 183.53300000000002,173.50633778381348 z" id="svg_26"/>
		<path class="st10" d="M152.52999999999997,215.13133778381348 l108.148,51.888 c0.9440000000000002,0.453 1.322,1.5990000000000002 0.8330000000000002,2.524 l-4.286,8.121 c-0.4880000000000001,0.926 -1.6480000000000001,1.26 -2.5540000000000003,0.7360000000000002 l-103.862,-60.009 C148.76,217.2073377838135 150.39600000000002,214.10733778381348 152.52999999999997,215.13133778381348 z" id="svg_27"/>
		<path class="st10" d="M135.90800000000002,264.29833778381345 l118.889,15.929 c1.037,0.139 1.7510000000000003,1.112 1.573,2.143 l-1.5670000000000002,9.048 c-0.17900000000000005,1.031 -1.178,1.707 -2.202,1.49 l-117.322,-24.977 C132.96300000000002,267.4383377838135 133.56099999999998,263.9843377838135 135.90800000000002,264.29833778381345 z" id="svg_28"/>
		<path class="st10" d="M135.29199999999997,316.19533778381344 l117.993,-21.589 c1.029,-0.18800000000000006 2.009,0.516 2.158,1.552 l1.306,9.089 c0.14900000000000005,1.036 -0.5930000000000002,1.988 -1.6340000000000003,2.097 l-119.299,12.5 C133.462,320.0913377838135 132.96300000000002,316.62233778381346 135.29199999999997,316.19533778381344 z" id="svg_29"/>
		<path class="st10" d="M150.74400000000003,365.74333778381344 l105.546,-56.994 c0.921,-0.4970000000000001 2.07,-0.13 2.532,0.809 l4.05,8.241 c0.462,0.9390000000000002 0.05000000000000002,2.074 -0.906,2.499 L152.37,369.0523377838135 C150.207,370.0143377838135 148.661,366.86833778381344 150.74400000000003,365.74333778381344 z" id="svg_30"/>
		<path class="st10" d="M180.75099999999998,408.0913377838135 l82.768,-86.821 c0.7220000000000002,-0.7570000000000002 1.929,-0.7630000000000002 2.6580000000000004,-0.013000000000000006 l6.399,6.586 c0.7290000000000002,0.7510000000000002 0.6890000000000004,1.957 -0.08900000000000004,2.657 l-89.167,80.235 C181.56,412.31933778381347 179.11700000000002,409.8043377838135 180.75099999999998,408.0913377838135 z" id="svg_31"/>
		<path class="st10" d="M222.375,439.09333778381347 l51.888,-108.148 c0.453,-0.9440000000000002 1.5990000000000002,-1.322 2.524,-0.8330000000000002 l8.121,4.286 c0.926,0.4890000000000001 1.26,1.6480000000000001 0.7360000000000002,2.5540000000000003 l-60.009,103.862 C224.45100000000002,442.8643377838134 221.351,441.22833778381346 222.375,439.09333778381347 z" id="svg_32"/>
		<path class="st10" d="M271.542,455.7163377838135 l15.929,-118.889 c0.139,-1.037 1.112,-1.7510000000000003 2.143,-1.573 l9.048,1.5670000000000002 c1.031,0.17900000000000005 1.707,1.178 1.49,2.202 l-24.977,117.322 C274.682,458.66133778381345 271.228,458.0623377838135 271.542,455.7163377838135 z" id="svg_33"/>
		<path class="st10" d="M323.43899999999996,456.3323377838135 L301.85,338.33933778381345 c-0.18800000000000006,-1.029 0.516,-2.009 1.552,-2.158 l9.089,-1.306 c1.036,-0.14900000000000005 1.988,0.5930000000000002 2.097,1.6340000000000003 l12.5,119.299 C327.336,458.1623377838134 323.866,458.6603377838135 323.43899999999996,456.3323377838135 z" id="svg_34"/>
		<path class="st10" d="M372.98699999999997,440.8803377838135 L315.99300000000005,335.3333377838135 c-0.4970000000000001,-0.921 -0.13,-2.07 0.809,-2.532 l8.241,-4.05 c0.9390000000000002,-0.462 2.074,-0.05000000000000002 2.499,0.906 l48.754,109.597 C377.25800000000004,441.41633778381345 374.11199999999997,442.9633377838135 372.98699999999997,440.8803377838135 z" id="svg_35"/>
		<path class="st10" d="M415.33500000000004,410.87333778381344 l-86.821,-82.768 c-0.7570000000000002,-0.7220000000000002 -0.7630000000000002,-1.929 -0.013000000000000006,-2.6580000000000004 l6.586,-6.399 c0.7510000000000002,-0.7290000000000002 1.957,-0.6890000000000004 2.657,0.08900000000000004 l80.235,89.167 C419.563,410.06433778381347 417.048,412.50733778381345 415.33500000000004,410.87333778381344 z" id="svg_36"/>
		<path class="st10" d="M446.337,369.24933778381353 l-108.148,-51.888 c-0.9440000000000002,-0.453 -1.322,-1.5990000000000002 -0.8330000000000002,-2.524 l4.286,-8.121 c0.4880000000000001,-0.926 1.6480000000000001,-1.26 2.5540000000000003,-0.7360000000000002 l103.862,60.009 C450.10799999999995,367.1733377838135 448.472,370.27333778381353 446.337,369.24933778381353 z" id="svg_37"/>
		<path class="st10" d="M462.96000000000004,320.0823377838135 L344.071,304.1533377838135 c-1.037,-0.139 -1.7510000000000003,-1.112 -1.573,-2.143 l1.5670000000000002,-9.048 c0.17900000000000005,-1.031 1.178,-1.707 2.202,-1.49 l117.322,24.977 C465.905,316.9423377838135 465.30600000000004,320.39633778381346 462.96000000000004,320.0823377838135 z" id="svg_38"/>
		<path class="st10" d="M463.576,268.1843377838135 L345.58299999999997,289.77333778381353 c-1.029,0.18800000000000006 -2.009,-0.516 -2.158,-1.552 l-1.306,-9.089 c-0.14900000000000005,-1.036 0.5930000000000002,-1.988 1.6340000000000003,-2.097 l119.299,-12.5 C465.40599999999995,264.2883377838135 465.904,267.75833778381343 463.576,268.1843377838135 z" id="svg_39"/>
		<path class="st10" d="M448.124,218.63633778381347 l-105.546,56.994 c-0.921,0.4970000000000001 -2.07,0.13 -2.532,-0.809 l-4.05,-8.241 c-0.462,-0.9390000000000002 -0.05000000000000002,-2.074 0.906,-2.499 l109.597,-48.754 C448.65999999999997,214.3663377838135 450.207,217.51233778381345 448.124,218.63633778381347 z" id="svg_40"/>
		<path class="st10" d="M418.11699999999996,176.2893377838135 l-82.768,86.821 c-0.7220000000000002,0.7570000000000002 -1.929,0.7630000000000002 -2.6580000000000004,0.013000000000000006 l-6.399,-6.586 c-0.7290000000000002,-0.7510000000000002 -0.6890000000000004,-1.957 0.08900000000000004,-2.657 l89.167,-80.235 C417.308,172.06133778381349 419.751,174.5753377838135 418.11699999999996,176.2893377838135 z" id="svg_41"/>
		<path class="st10" d="M376.49300000000005,145.28633778381345 l-51.888,108.148 c-0.453,0.9440000000000002 -1.5990000000000002,1.322 -2.524,0.8330000000000002 l-8.121,-4.286 c-0.926,-0.4880000000000001 -1.26,-1.6480000000000001 -0.7360000000000002,-2.5540000000000003 l60.009,-103.862 C374.41700000000003,141.51633778381347 377.51700000000005,143.1523377838135 376.49300000000005,145.28633778381345 z" id="svg_42"/>
	</g>
</g></g></svg>